<svg width="38" height="55" viewBox="0 0 38 55" fill="none" xmlns="http://www.w3.org/2000/svg">
<path d="M4.45032 55H19.051C19.051 55 19.1644 51.721 19.051 51.3823C18.9376 51.0436 18.9381 50.8166 18.3722 50.2514C17.8062 49.6861 16.9005 49.5735 16.9005 49.5735C16.9005 49.5735 9.54378 49.5735 8.29857 49.4604C7.05336 49.3474 6.71399 47.8777 6.71399 47.8777V29.111C6.71399 28.7718 6.88999 28.5906 7.16673 28.4327C7.47375 28.2575 7.84564 28.3196 8.0722 28.4327C8.29875 28.5457 14.7502 33.7462 15.316 33.9723C15.8817 34.1984 17.3531 34.1984 17.806 33.9723C18.2589 33.7462 29.3509 15.2056 29.6903 14.9795C30.0297 14.7533 30.256 14.7533 30.5958 14.9795C30.9355 15.2056 33.4256 17.3536 34.2177 17.4666C35.0098 17.5797 35.2363 16.6752 35.2363 16.6752C35.2363 16.6752 37.5002 1.63894 37.5 1.30011C37.4998 0.961281 37.2942 0.538467 36.9343 0.282214C36.5239 -0.00995907 36.1416 -0.0561528 35.5759 0.056536C35.0102 0.169225 20.862 6.27442 20.862 6.27442C20.862 6.27442 20.0695 7.06578 20.862 7.7441C21.6545 8.42241 24.8232 10.2313 24.9366 10.9096C25.05 11.5879 15.893 25.6629 15.6555 25.8325C15.418 26.0021 14.9653 26.1151 14.5237 25.8325C14.0821 25.5498 5.35607 19.0489 4.90305 18.8232C4.45003 18.5976 3.43224 18.3701 2.41329 18.7097C1.39435 19.0493 0.941327 19.6151 0.828431 20.9712C0.715536 22.3274 0.149515 49.5735 0.828431 51.3823C1.50735 53.1912 3.65803 55 4.45032 55Z" fill="url(#paint0_linear_98_731)"/>
<defs>
<linearGradient id="paint0_linear_98_731" x1="19" y1="0" x2="19" y2="55" gradientUnits="userSpaceOnUse">
<stop stop-color="#3679F5"/>
<stop offset="0.504808" stop-color="#9F19F5"/>
<stop offset="1" stop-color="#9C4BF8"/>
</linearGradient>
</defs>
</svg>
